<svg xmlns="http://www.w3.org/2000/svg" viewBox="0 0 400 400">
  <defs>
    <linearGradient id="ceu" x1="0" y1="0" x2="0" y2="1">
      <stop offset="0" stop-color="#FBD46A"/>
      <stop offset="0.6" stop-color="#F7E3A6"/>
      <stop offset="1" stop-color="#EAD9A0"/>
    </linearGradient>
    <radialGradient id="sol" cx="0.5" cy="0.5" r="0.5">
      <stop offset="0" stop-color="#FFF8E9"/>
      <stop offset="0.6" stop-color="#FFE7A8"/>
      <stop offset="1" stop-color="#FFE7A8" stop-opacity="0"/>
    </radialGradient>
    <linearGradient id="folha" x1="0" y1="0" x2="1" y2="1">
      <stop offset="0" stop-color="#6FA84B"/>
      <stop offset="1" stop-color="#395424"/>
    </linearGradient>
    <linearGradient id="folha2" x1="1" y1="0" x2="0" y2="1">
      <stop offset="0" stop-color="#7DB556"/>
      <stop offset="1" stop-color="#4C7031"/>
    </linearGradient>
    <linearGradient id="tronco" x1="0" y1="0" x2="1" y2="0">
      <stop offset="0" stop-color="#6E8B3D"/>
      <stop offset="0.5" stop-color="#8FA552"/>
      <stop offset="1" stop-color="#5E7A33"/>
    </linearGradient>
    <linearGradient id="terra" x1="0" y1="0" x2="0" y2="1">
      <stop offset="0" stop-color="#7A5030"/>
      <stop offset="1" stop-color="#4A2E17"/>
    </linearGradient>
  </defs>

  <!-- céu e sol -->
  <rect width="400" height="400" fill="url(#ceu)"/>
  <circle cx="300" cy="96" r="78" fill="url(#sol)"/>
  <circle cx="300" cy="96" r="34" fill="#FFF8E9"/>

  <!-- colinas ao fundo -->
  <path d="M0 262 C 70 222, 140 238, 200 252 S 330 222, 400 240 L400 400 L0 400 Z" fill="#A9C27A"/>
  <path d="M0 286 C 90 258, 170 276, 250 270 S 360 256, 400 266 L400 400 L0 400 Z" fill="#7FA556"/>

  <!-- fileira de bananeirinhas ao fundo -->
  <g fill="#5E8A3C" opacity="0.85">
    <path d="M52 262 l3 -26 l3 26 z"/><path d="M55 240 c -14 -6 -22 -2 -28 6 c 12 0 20 -2 28 -6 z"/><path d="M55 240 c 14 -6 22 -2 28 6 c -12 0 -20 -2 -28 -6 z"/>
    <path d="M352 256 l3 -24 l3 24 z"/><path d="M355 236 c -13 -6 -20 -2 -26 6 c 11 0 19 -2 26 -6 z"/><path d="M355 236 c 13 -6 20 -2 26 6 c -11 0 -19 -2 -26 -6 z"/>
  </g>

  <!-- bananeira principal -->
  <path d="M188 330 C 186 270, 190 220, 196 176 L 212 176 C 216 220, 218 270, 214 330 Z" fill="url(#tronco)"/>
  <path d="M196 200 C 200 240, 199 290, 196 330" stroke="#4E6A2A" stroke-width="2" fill="none" opacity="0.5"/>

  <!-- folhas grandes -->
  <path d="M204 182 C 160 150, 96 150, 52 176 C 92 196, 158 200, 204 186 Z" fill="url(#folha)"/>
  <path d="M204 184 C 160 170, 104 170, 58 177" stroke="#D9E8B8" stroke-width="2" fill="none" opacity="0.7"/>
  <path d="M96 172 l -8 10 M122 168 l -6 12 M150 170 l -4 12" stroke="#F7E3A6" stroke-width="2" opacity="0.8"/>

  <path d="M206 180 C 250 140, 320 136, 358 156 C 322 182, 254 192, 206 186 Z" fill="url(#folha2)"/>
  <path d="M206 183 C 252 166, 310 160, 352 158" stroke="#D9E8B8" stroke-width="2" fill="none" opacity="0.7"/>
  <path d="M300 160 l 6 12 M272 164 l 4 12 M326 158 l 8 10" stroke="#F7E3A6" stroke-width="2" opacity="0.8"/>

  <path d="M204 180 C 176 140, 160 92, 176 52 C 206 82, 216 132, 208 180 Z" fill="url(#folha)"/>
  <path d="M206 178 C 190 140, 182 96, 178 58" stroke="#D9E8B8" stroke-width="2" fill="none" opacity="0.7"/>

  <path d="M208 180 C 230 136, 262 104, 300 92 C 290 132, 254 166, 210 184 Z" fill="url(#folha2)"/>
  <path d="M210 180 C 236 146, 266 116, 296 96" stroke="#D9E8B8" stroke-width="2" fill="none" opacity="0.7"/>

  <!-- cacho de bananas -->
  <path d="M212 186 C 230 196, 236 212, 234 226" stroke="#6E8B3D" stroke-width="5" fill="none" stroke-linecap="round"/>
  <g stroke="#B9780F" stroke-width="1.2">
    <path d="M222 206 c 10 -4 22 -2 30 4 c -8 4 -20 4 -30 -4 z" fill="#F5C33B"/>
    <path d="M220 214 c 12 -2 24 2 30 10 c -10 2 -22 0 -30 -10 z" fill="#F2B52A"/>
    <path d="M224 222 c 12 0 22 6 26 14 c -10 0 -20 -4 -26 -14 z" fill="#F5C33B"/>
    <path d="M226 230 c 10 2 18 8 20 16 c -9 -2 -17 -6 -20 -16 z" fill="#E9A92B"/>
  </g>
  <!-- coração da bananeira -->
  <path d="M234 236 c 6 6 8 16 2 24 c -8 -4 -10 -14 -2 -24 z" fill="#8E3B5A"/>
  <path d="M235 240 c 3 5 4 11 1 16" stroke="#B25C7C" stroke-width="2" fill="none"/>

  <!-- terra com mudas -->
  <path d="M0 322 C 120 300, 280 300, 400 322 L400 400 L0 400 Z" fill="url(#terra)"/>
  <path d="M0 340 C 130 322, 270 322, 400 340" stroke="#3A2210" stroke-width="3" fill="none" opacity="0.5"/>
  <path d="M0 362 C 130 346, 270 346, 400 362" stroke="#3A2210" stroke-width="3" fill="none" opacity="0.4"/>

  <g>
    <path d="M86 326 l 0 -18" stroke="#4C7031" stroke-width="3" stroke-linecap="round"/>
    <path d="M86 312 c -10 -8 -18 -4 -20 2 c 8 2 14 2 20 -2 z" fill="#6FA84B"/>
    <path d="M86 310 c 10 -8 18 -4 20 2 c -8 2 -14 2 -20 -2 z" fill="#6FA84B"/>
  </g>
  <g>
    <path d="M318 326 l 0 -16" stroke="#4C7031" stroke-width="3" stroke-linecap="round"/>
    <path d="M318 312 c -9 -7 -16 -4 -18 2 c 7 2 12 2 18 -2 z" fill="#6FA84B"/>
    <path d="M318 310 c 9 -7 16 -4 18 2 c -7 2 -12 2 -18 -2 z" fill="#6FA84B"/>
  </g>

  <!-- cesto com bananas colhidas -->
  <g>
    <path d="M128 346 L 136 378 L 176 378 L 184 346 Z" fill="#B07A3E"/>
    <path d="M130 352 L 182 352 M132 362 L 180 362 M134 371 L 178 371" stroke="#8A5A28" stroke-width="2"/>
    <path d="M144 346 L 146 378 M156 346 L 156 378 M168 346 L 166 378" stroke="#8A5A28" stroke-width="1.5" opacity="0.7"/>
    <path d="M136 346 c 6 -14 18 -18 26 -14 c -10 2 -18 8 -26 14 z" fill="#F5C33B" stroke="#B9780F" stroke-width="1"/>
    <path d="M150 346 c 8 -12 20 -14 28 -8 c -10 0 -20 4 -28 8 z" fill="#F2B52A" stroke="#B9780F" stroke-width="1"/>
    <rect x="124" y="342" width="64" height="7" rx="3.5" fill="#C48A4A"/>
  </g>

</svg>
