<svg xmlns="http://www.w3.org/2000/svg" viewBox="0 0 400 400">
  <defs>
    <linearGradient id="bg" x1="0" y1="0" x2="1" y2="1">
      <stop offset="0%" stop-color="#F5B729"/>
      <stop offset="100%" stop-color="#4C7031"/>
    </linearGradient>
  </defs>
  <rect width="400" height="400" fill="url(#bg)"/>

  <!-- sol -->
  <circle cx="320" cy="80" r="34" fill="#FFF8E9" opacity="0.85"/>

  <!-- solo -->
  <path d="M0 320 Q200 280 400 320 L400 400 L0 400 Z" fill="#5B3A22"/>
  <path d="M0 330 Q200 296 400 330 L400 345 Q200 312 0 345 Z" fill="#402710" opacity="0.5"/>

  <!-- folhas de bananeira -->
  <path d="M200 320 C170 260 150 190 200 120 C220 190 220 260 200 320 Z" fill="#395424"/>
  <path d="M200 320 C170 270 165 210 200 150" stroke="#FFF8E9" stroke-width="3" fill="none" opacity="0.5"/>

  <path d="M200 300 C140 270 90 210 90 140 C160 160 200 220 210 290 Z" fill="#4C7031"/>
  <path d="M200 300 C150 270 110 220 100 155" stroke="#FFF8E9" stroke-width="3" fill="none" opacity="0.4"/>

  <path d="M200 300 C260 270 310 210 310 140 C240 160 200 220 190 290 Z" fill="#4C7031"/>
  <path d="M200 300 C250 270 290 220 300 155" stroke="#FFF8E9" stroke-width="3" fill="none" opacity="0.4"/>

  <!-- broto pequeno -->
  <circle cx="200" cy="322" r="10" fill="#F5B729"/>
</svg>
